<svg width="35" height="35" viewBox="0 0 35 35" fill="none" xmlns="http://www.w3.org/2000/svg">
<g id="dashicons:email">
<path id="Vector" d="M6.77254 7H29.96C32.1475 7 33.25 8.0325 33.25 10.1325V24.8675C33.25 26.95 32.1475 28 29.96 28H6.77254C4.58504 28 3.48254 26.95 3.48254 24.8675V10.1325C3.48254 8.0325 4.58504 7 6.77254 7ZM18.3575 22.05L30.1525 12.3725C30.5725 12.0225 30.905 11.2175 30.38 10.5C29.8725 9.7825 28.945 9.765 28.3325 10.2025L18.3575 16.9575L8.40004 10.2025C7.78754 9.765 6.86004 9.7825 6.35254 10.5C5.82754 11.2175 6.16004 12.0225 6.58004 12.3725L18.3575 22.05Z" fill="#E9E9E9"/>
</g>
</svg>
