<svg width="35" height="35" viewBox="0 0 35 35" fill="none" xmlns="http://www.w3.org/2000/svg">
<g id="heroicons:home-solid">
<g id="Group">
<path id="Vector" d="M16.7271 5.59998C16.9322 5.39516 17.2102 5.28011 17.5 5.28011C17.7898 5.28011 18.0678 5.39516 18.2729 5.59998L30.9458 18.2729C31.046 18.3804 31.1667 18.4665 31.3009 18.5263C31.435 18.5861 31.5799 18.6183 31.7267 18.6208C31.8736 18.6234 32.0195 18.5964 32.1557 18.5414C32.2918 18.4864 32.4156 18.4045 32.5194 18.3007C32.6233 18.1968 32.7052 18.0731 32.7602 17.9369C32.8152 17.8007 32.8422 17.6548 32.8396 17.508C32.837 17.3611 32.8049 17.2163 32.7451 17.0821C32.6853 16.9479 32.5991 16.8272 32.4917 16.7271L19.8202 4.05415C19.5155 3.74945 19.1538 3.50775 18.7557 3.34285C18.3576 3.17795 17.9309 3.09308 17.5 3.09308C17.0691 3.09308 16.6424 3.17795 16.2443 3.34285C15.8462 3.50775 15.4845 3.74945 15.1798 4.05415L2.50687 16.7271C2.30773 16.9334 2.19761 17.2098 2.20024 17.4966C2.20287 17.7833 2.31803 18.0576 2.52091 18.2603C2.7238 18.463 2.99818 18.5779 3.28496 18.5803C3.57174 18.5826 3.84797 18.4722 4.05416 18.2729L16.7271 5.59998Z" fill="#E9E9E9"/>
<path id="Vector_2" d="M17.5 7.92162L29.3985 19.8202C29.4423 19.8639 29.486 19.9047 29.5312 19.9456V28.9843C29.5312 30.4937 28.3063 31.7187 26.7969 31.7187H21.875C21.5849 31.7187 21.3067 31.6035 21.1016 31.3983C20.8965 31.1932 20.7812 30.915 20.7812 30.625V24.0625C20.7812 23.7724 20.666 23.4942 20.4609 23.2891C20.2558 23.0839 19.9776 22.9687 19.6875 22.9687H15.3125C15.0224 22.9687 14.7442 23.0839 14.5391 23.2891C14.334 23.4942 14.2188 23.7724 14.2188 24.0625V30.625C14.2188 30.915 14.1035 31.1932 13.8984 31.3983C13.6933 31.6035 13.4151 31.7187 13.125 31.7187H8.20312C7.47792 31.7187 6.78242 31.4306 6.26963 30.9178C5.75684 30.405 5.46875 29.7095 5.46875 28.9843V19.9456C5.51412 19.905 5.55837 19.8632 5.60146 19.8202L17.5 7.9187V7.92162Z" fill="#E9E9E9"/>
</g>
</g>
</svg>
