<svg width="35" height="35" viewBox="0 0 35 35" fill="none" xmlns="http://www.w3.org/2000/svg">
<g id="ri:whatsapp-fill">
<path id="Vector" d="M17.5014 2.91669C25.5558 2.91669 32.0848 9.44565 32.0848 17.5C32.0848 25.5544 25.5558 32.0834 17.5014 32.0834C14.9242 32.0875 12.3924 31.4055 10.166 30.1073L2.92394 32.0834L4.89561 24.8384C3.59637 22.6113 2.91381 20.0784 2.91811 17.5C2.91811 9.44565 9.44707 2.91669 17.5014 2.91669ZM12.5314 10.6459L12.2398 10.6575C12.051 10.669 11.8664 10.7186 11.6973 10.8034C11.5391 10.8929 11.3947 11.0049 11.2685 11.1359C11.0935 11.3006 10.9944 11.4436 10.8879 11.5821C10.3485 12.2834 10.0581 13.1444 10.0625 14.0292C10.0654 14.7438 10.2521 15.4394 10.5437 16.0898C11.1402 17.4052 12.1217 18.7979 13.4167 20.0886C13.7287 20.3992 14.035 20.7113 14.3646 21.0015C15.9737 22.4182 17.8912 23.4399 19.9646 23.9852L20.7929 24.1121C21.0627 24.1267 21.3325 24.1063 21.6037 24.0931C22.0285 24.0712 22.4432 23.9562 22.8185 23.7563C23.0095 23.6579 23.1959 23.5508 23.3771 23.4354C23.3771 23.4354 23.4398 23.3946 23.5594 23.3042C23.7562 23.1584 23.8773 23.0548 24.0406 22.8842C24.1617 22.7588 24.2667 22.6115 24.3469 22.4438C24.4606 22.2061 24.5744 21.7525 24.621 21.3748C24.656 21.0861 24.6458 20.9286 24.6414 20.8309C24.6356 20.6748 24.5058 20.5129 24.3644 20.4444L23.5156 20.0638C23.5156 20.0638 22.2469 19.5111 21.471 19.1581C21.3898 19.1227 21.3029 19.1024 21.2144 19.0984C21.1146 19.0881 21.0138 19.0993 20.9187 19.1313C20.8236 19.1632 20.7365 19.2151 20.6631 19.2836C20.6558 19.2806 20.5581 19.3638 19.5037 20.6413C19.4432 20.7226 19.3599 20.784 19.2643 20.8178C19.1687 20.8516 19.0652 20.8561 18.9671 20.8309C18.8721 20.8054 18.779 20.7732 18.6885 20.7346C18.5077 20.6588 18.445 20.6296 18.321 20.5771C17.484 20.2119 16.7091 19.7184 16.0242 19.1144C15.8404 18.954 15.6698 18.779 15.4948 18.6098C14.9211 18.0604 14.421 17.4388 14.0073 16.7606L13.9212 16.6221C13.8594 16.529 13.8095 16.4286 13.7725 16.3231C13.7171 16.1088 13.8614 15.9367 13.8614 15.9367C13.8614 15.9367 14.2158 15.5488 14.3806 15.3388C14.541 15.1346 14.6767 14.9363 14.7642 14.7948C14.9362 14.5177 14.9902 14.2334 14.8998 14.0131C14.4914 13.0156 14.0685 12.0225 13.6339 11.0367C13.5479 10.8413 13.2927 10.7013 13.0608 10.6736C12.9821 10.6648 12.9033 10.6561 12.8246 10.6502C12.6287 10.6405 12.4325 10.6424 12.2369 10.6561L12.53 10.6444L12.5314 10.6459Z" fill="#E9E9E9"/>
</g>
</svg>
